<svg xmlns="http://www.w3.org/2000/svg" viewBox="0 0 489 240" width="489" height="240" role="img" aria-label="InvestPal">
  <title>InvestPal</title>
  <circle cx="120" cy="120" r="100" fill="#faf6f2" stroke="#e8dccb" stroke-width="1.5"/>
  <path d="M78 34 L100 80 L62 74 Z" fill="#311e3e"/>
  <path d="M162 34 L140 80 L178 74 Z" fill="#311e3e"/>
  <ellipse cx="120" cy="132" rx="68" ry="72" fill="#311e3e"/>
  <path d="M58 114 C56 140 62 166 70 178 C79 167 82 140 78 116 Z" fill="#4a3055"/>
  <path d="M182 114 C184 140 178 166 170 178 C161 167 158 140 162 116 Z" fill="#4a3055"/>
  <ellipse cx="120" cy="155" rx="44" ry="46" fill="#f4ead9"/>
  <circle cx="94" cy="112" r="22" fill="#ffffff"/>
  <circle cx="146" cy="112" r="22" fill="#ffffff"/>
  <circle cx="94" cy="113" r="9.5" fill="#311e3e"/>
  <circle cx="146" cy="113" r="9.5" fill="#311e3e"/>
  <circle cx="90.5" cy="109.5" r="3.2" fill="#ffffff"/>
  <circle cx="142.5" cy="109.5" r="3.2" fill="#ffffff"/>
  <path d="M110 136 L130 136 L120 154 Z" fill="#c9932c"/>
  <path d="M100 172 L120 162 L140 172" fill="none" stroke="#c9932c" stroke-width="6" stroke-linecap="round" stroke-linejoin="round"/>
  <path d="M105 184 L120 175 L135 184" fill="none" stroke="#c9932c" stroke-width="6" stroke-linecap="round" stroke-linejoin="round"/>
  <path d="M110 196 L120 188 L130 196" fill="none" stroke="#c9932c" stroke-width="6" stroke-linecap="round" stroke-linejoin="round"/>
  <path d="M267.85 86.17V124.00H261.15V86.17ZM279.46 108.84V124.00H273.06V97.19H279.36V101.30Q282.15 96.65 287.59 96.65Q291.80 96.65 294.48 99.37Q297.16 102.09 297.16 107.24V124.00H290.74V108.26Q290.74 105.31 289.31 103.79Q287.89 102.27 285.33 102.27Q282.81 102.27 281.14 103.84Q279.46 105.41 279.46 108.84ZM309.76 124.00 299.68 97.19H306.46L311.36 111.15Q311.89 112.75 312.39 114.34Q312.88 115.93 313.37 117.50Q313.85 115.93 314.33 114.34Q314.81 112.75 315.32 111.15L320.15 97.19H326.85L316.77 124.00ZM341.20 124.61Q337.19 124.61 334.24 122.81Q331.30 121.00 329.71 117.84Q328.12 114.68 328.12 110.62Q328.12 106.53 329.76 103.37Q331.40 100.21 334.29 98.39Q337.19 96.58 340.95 96.58Q344.81 96.58 347.70 98.36Q350.60 100.13 352.20 103.27Q353.79 106.40 353.79 110.52V112.27H334.40Q334.52 115.54 336.33 117.55Q338.13 119.56 341.35 119.56Q343.77 119.56 345.34 118.50Q346.91 117.45 347.47 115.72H353.46Q352.96 118.34 351.24 120.34Q349.53 122.35 346.94 123.48Q344.35 124.61 341.20 124.61ZM334.45 107.85H347.65Q347.35 104.98 345.58 103.32Q343.82 101.66 341.05 101.66Q338.26 101.66 336.52 103.32Q334.78 104.98 334.45 107.85ZM367.87 124.63Q362.97 124.63 359.68 122.34Q356.39 120.04 356.09 115.72H362.41Q362.61 117.68 363.98 118.76Q365.35 119.84 367.77 119.84Q370.08 119.84 371.41 118.92Q372.74 118.01 372.74 116.59Q372.74 115.37 371.75 114.63Q370.76 113.89 369.09 113.54L364.52 112.60Q356.70 110.97 356.70 104.86Q356.70 101.15 359.64 98.88Q362.59 96.60 367.49 96.60Q372.36 96.60 375.42 99.00Q378.48 101.40 378.58 105.54H372.57Q372.51 103.74 371.17 102.57Q369.82 101.40 367.64 101.40Q365.53 101.40 364.31 102.34Q363.09 103.28 363.09 104.65Q363.09 105.85 364.03 106.59Q364.97 107.34 366.65 107.72L371.47 108.71Q375.46 109.55 377.35 111.36Q379.24 113.16 379.24 116.10Q379.24 118.72 377.78 120.64Q376.32 122.55 373.76 123.59Q371.19 124.63 367.87 124.63ZM396.97 97.19V102.34H391.51V116.31Q391.51 117.75 392.10 118.30Q392.68 118.85 394.23 118.85H396.97V124.00H393.11Q389.03 124.00 387.06 122.35Q385.09 120.70 385.09 117.25V102.34H380.42V97.19H385.09V89.88H391.51V97.19Z" fill="#311e3e"/>
  <path d="M401.31 124.00V86.17H415.76Q419.93 86.17 422.96 87.64Q425.99 89.11 427.63 91.83Q429.27 94.55 429.27 98.25Q429.27 101.99 427.59 104.70Q425.92 107.42 422.86 108.91Q419.80 110.39 415.64 110.39H408.02V124.00ZM408.02 104.65H415.38Q418.76 104.65 420.71 102.94Q422.67 101.22 422.67 98.25Q422.67 95.31 420.71 93.61Q418.76 91.91 415.38 91.91H408.02ZM440.91 124.43Q436.89 124.43 434.27 122.41Q431.64 120.39 431.64 116.38Q431.64 113.34 433.12 111.67Q434.61 110.01 437.01 109.25Q439.41 108.49 442.18 108.21Q445.91 107.78 447.38 107.45Q448.85 107.12 448.85 105.74V105.54Q448.85 103.81 447.55 102.72Q446.24 101.63 443.95 101.63Q441.62 101.63 440.16 102.72Q438.70 103.81 438.57 105.52H432.40Q432.63 101.53 435.73 99.09Q438.82 96.65 444.08 96.65Q449.31 96.65 452.26 99.09Q455.20 101.53 455.20 105.72V124.00H448.90V120.22H448.80Q447.84 121.99 446.01 123.21Q444.18 124.43 440.91 124.43ZM442.48 119.68Q445.63 119.68 447.25 118.05Q448.88 116.41 448.88 114.07V111.18Q448.29 111.56 446.62 111.88Q444.94 112.19 442.96 112.50Q440.91 112.80 439.40 113.65Q437.88 114.50 437.88 116.33Q437.88 117.91 439.13 118.79Q440.37 119.68 442.48 119.68ZM466.48 86.17V124.00H460.08V86.17Z" fill="#c9932c"/>
  <path d="M258.43 154.00 262.92 141.63H264.75L269.30 154.00H267.64L266.40 150.55H261.30L260.11 154.00ZM261.79 149.17H265.91L265.01 146.66Q264.79 146.04 264.51 145.14Q264.23 144.24 263.83 142.89Q263.44 144.26 263.15 145.18Q262.86 146.09 262.66 146.66ZM273.14 141.63V154.00H271.56V141.63ZM281.41 154.00V144.72H282.90V154.00ZM282.16 143.20Q281.74 143.20 281.43 142.91Q281.12 142.62 281.12 142.21Q281.12 141.80 281.43 141.51Q281.74 141.23 282.16 141.23Q282.59 141.23 282.90 141.51Q283.21 141.80 283.21 142.21Q283.21 142.62 282.90 142.91Q282.59 143.20 282.16 143.20ZM287.36 148.44V154.00H285.86V144.72H287.30L287.31 146.44Q287.76 145.45 288.48 145.03Q289.21 144.60 290.15 144.60Q291.56 144.60 292.42 145.48Q293.29 146.35 293.29 148.11V154.00H291.79V148.23Q291.79 147.16 291.23 146.55Q290.67 145.95 289.70 145.95Q288.69 145.95 288.03 146.60Q287.36 147.25 287.36 148.44ZM298.93 154.00 295.39 144.72H297.02L299.00 150.22Q299.21 150.83 299.39 151.43Q299.56 152.03 299.72 152.61Q299.88 152.03 300.05 151.43Q300.22 150.83 300.43 150.22L302.41 144.72H304.04L300.50 154.00ZM310.04 154.20Q308.70 154.20 307.72 153.60Q306.75 153.00 306.22 151.93Q305.69 150.86 305.69 149.43Q305.69 148.01 306.21 146.92Q306.72 145.83 307.67 145.22Q308.61 144.60 309.87 144.60Q310.61 144.60 311.33 144.85Q312.04 145.09 312.63 145.64Q313.21 146.18 313.56 147.07Q313.91 147.96 313.91 149.24V149.87H307.21Q307.26 151.32 308.04 152.09Q308.82 152.87 310.05 152.87Q310.87 152.87 311.47 152.51Q312.06 152.15 312.32 151.44L313.76 151.84Q313.44 152.90 312.46 153.55Q311.47 154.20 310.04 154.20ZM307.21 148.60H312.39Q312.29 147.42 311.65 146.67Q311.02 145.93 309.87 145.93Q309.07 145.93 308.50 146.31Q307.92 146.68 307.59 147.28Q307.25 147.89 307.21 148.60ZM319.55 154.20Q318.12 154.20 317.17 153.58Q316.23 152.95 315.98 151.75L317.40 151.41Q317.60 152.17 318.15 152.53Q318.70 152.89 319.53 152.89Q320.50 152.89 321.08 152.47Q321.66 152.06 321.66 151.48Q321.66 150.53 320.30 150.21L318.75 149.84Q316.26 149.25 316.26 147.31Q316.26 146.51 316.71 145.90Q317.16 145.29 317.93 144.95Q318.71 144.60 319.70 144.60Q321.13 144.60 321.93 145.23Q322.72 145.86 323.03 146.84L321.68 147.19Q321.49 146.69 321.05 146.28Q320.60 145.87 319.71 145.87Q318.88 145.87 318.32 146.26Q317.77 146.64 317.77 147.22Q317.77 147.73 318.15 148.04Q318.52 148.36 319.33 148.55L320.73 148.88Q322.00 149.18 322.60 149.80Q323.21 150.43 323.21 151.39Q323.21 152.20 322.75 152.83Q322.29 153.47 321.46 153.83Q320.64 154.20 319.55 154.20ZM329.36 144.72V146.00H327.45V151.59Q327.45 152.22 327.70 152.50Q327.96 152.79 328.55 152.79Q328.69 152.79 328.91 152.75Q329.13 152.72 329.31 152.69L329.62 153.95Q329.38 154.03 329.09 154.07Q328.79 154.12 328.50 154.12Q327.30 154.12 326.63 153.48Q325.96 152.85 325.96 151.71V146.00H324.56V144.72H325.96V142.51H327.45V144.72ZM331.61 154.00V144.72H333.06L333.07 146.42Q333.41 145.48 334.13 145.02Q334.85 144.55 335.67 144.55Q336.58 144.55 337.18 145.07Q337.78 145.59 338.03 146.45Q338.37 145.57 339.16 145.06Q339.95 144.55 340.96 144.55Q341.76 144.55 342.42 144.90Q343.09 145.25 343.48 145.96Q343.88 146.66 343.88 147.74V154.00H342.38V147.78Q342.38 146.78 341.82 146.35Q341.25 145.92 340.51 145.92Q339.57 145.92 339.03 146.49Q338.49 147.06 338.49 147.94V154.00H337.00V147.63Q337.00 146.86 336.48 146.39Q335.97 145.92 335.18 145.92Q334.36 145.92 333.73 146.48Q333.10 147.04 333.10 148.16V154.00ZM350.74 154.20Q349.40 154.20 348.42 153.60Q347.45 153.00 346.92 151.93Q346.39 150.86 346.39 149.43Q346.39 148.01 346.91 146.92Q347.42 145.83 348.36 145.22Q349.31 144.60 350.57 144.60Q351.31 144.60 352.02 144.85Q352.74 145.09 353.33 145.64Q353.91 146.18 354.26 147.07Q354.61 147.96 354.61 149.24V149.87H347.90Q347.96 151.32 348.74 152.09Q349.51 152.87 350.75 152.87Q351.57 152.87 352.16 152.51Q352.76 152.15 353.02 151.44L354.46 151.84Q354.14 152.90 353.15 153.55Q352.17 154.20 350.74 154.20ZM347.91 148.60H353.09Q352.98 147.42 352.35 146.67Q351.71 145.93 350.57 145.93Q349.77 145.93 349.19 146.31Q348.62 146.68 348.28 147.28Q347.95 147.89 347.91 148.60ZM358.59 148.44V154.00H357.09V144.72H358.53L358.54 146.44Q358.98 145.45 359.71 145.03Q360.44 144.60 361.37 144.60Q362.79 144.60 363.65 145.48Q364.51 146.35 364.51 148.11V154.00H363.02V148.23Q363.02 147.16 362.46 146.55Q361.90 145.95 360.93 145.95Q359.92 145.95 359.25 146.60Q358.59 147.25 358.59 148.44ZM371.13 144.72V146.00H369.22V151.59Q369.22 152.22 369.47 152.50Q369.72 152.79 370.31 152.79Q370.45 152.79 370.67 152.75Q370.89 152.72 371.08 152.69L371.38 153.95Q371.15 154.03 370.86 154.07Q370.56 154.12 370.27 154.12Q369.07 154.12 368.40 153.48Q367.72 152.85 367.72 151.71V146.00H366.33V144.72H367.72V142.51H369.22V144.72ZM381.10 154.22Q380.22 154.22 379.50 153.88Q378.78 153.55 378.36 152.91Q377.93 152.27 377.93 151.36Q377.93 150.56 378.25 150.07Q378.56 149.57 379.09 149.28Q379.62 148.99 380.26 148.85Q380.90 148.71 381.54 148.63Q382.37 148.52 382.90 148.46Q383.42 148.41 383.67 148.26Q383.93 148.12 383.93 147.78V147.73Q383.93 146.87 383.44 146.39Q382.95 145.92 381.98 145.92Q380.98 145.92 380.42 146.35Q379.85 146.79 379.63 147.28L378.20 146.80Q378.56 145.96 379.16 145.48Q379.77 145.00 380.50 144.80Q381.23 144.60 381.94 144.60Q382.41 144.60 383.00 144.72Q383.59 144.83 384.15 145.16Q384.70 145.49 385.06 146.14Q385.42 146.79 385.42 147.88V154.00H383.95V152.74H383.85Q383.69 153.06 383.35 153.41Q383.00 153.75 382.44 153.98Q381.88 154.22 381.10 154.22ZM381.35 152.90Q382.18 152.90 382.76 152.57Q383.33 152.25 383.63 151.73Q383.93 151.21 383.93 150.65V149.36Q383.84 149.47 383.53 149.55Q383.22 149.64 382.83 149.71Q382.43 149.77 382.06 149.82Q381.69 149.87 381.48 149.89Q380.94 149.96 380.47 150.12Q380.00 150.28 379.72 150.59Q379.44 150.90 379.44 151.44Q379.44 152.16 379.98 152.53Q380.52 152.90 381.35 152.90ZM391.86 154.20Q390.71 154.20 389.82 153.61Q388.93 153.02 388.43 151.94Q387.94 150.86 387.94 149.38Q387.94 147.92 388.44 146.84Q388.94 145.77 389.83 145.18Q390.72 144.60 391.87 144.60Q392.77 144.60 393.31 144.90Q393.84 145.20 394.12 145.58Q394.41 145.96 394.56 146.21H394.68V141.63H396.17V154.00H394.73V152.56H394.56Q394.41 152.82 394.12 153.21Q393.82 153.59 393.29 153.90Q392.75 154.20 391.86 154.20ZM392.09 152.86Q393.35 152.86 394.02 151.89Q394.69 150.92 394.69 149.37Q394.69 147.83 394.03 146.89Q393.37 145.94 392.09 145.94Q391.21 145.94 390.62 146.40Q390.04 146.85 389.75 147.63Q389.45 148.41 389.45 149.37Q389.45 150.34 389.75 151.13Q390.04 151.92 390.63 152.39Q391.22 152.86 392.09 152.86ZM401.81 154.00 398.27 144.72H399.90L401.88 150.22Q402.10 150.83 402.27 151.43Q402.44 152.03 402.60 152.61Q402.76 152.03 402.93 151.43Q403.10 150.83 403.32 150.22L405.29 144.72H406.93L403.38 154.00ZM409.03 154.00V144.72H410.52V154.00ZM409.78 143.20Q409.36 143.20 409.05 142.91Q408.74 142.62 408.74 142.21Q408.74 141.80 409.05 141.51Q409.36 141.23 409.78 141.23Q410.21 141.23 410.52 141.51Q410.83 141.80 410.83 142.21Q410.83 142.62 410.52 142.91Q410.21 143.20 409.78 143.20ZM416.64 154.20Q415.21 154.20 414.26 153.58Q413.32 152.95 413.07 151.75L414.49 151.41Q414.69 152.17 415.24 152.53Q415.79 152.89 416.62 152.89Q417.59 152.89 418.17 152.47Q418.75 152.06 418.75 151.48Q418.75 150.53 417.39 150.21L415.84 149.84Q413.35 149.25 413.35 147.31Q413.35 146.51 413.80 145.90Q414.25 145.29 415.02 144.95Q415.80 144.60 416.79 144.60Q418.22 144.60 419.02 145.23Q419.81 145.86 420.12 146.84L418.77 147.19Q418.58 146.69 418.14 146.28Q417.69 145.87 416.80 145.87Q415.97 145.87 415.41 146.26Q414.86 146.64 414.86 147.22Q414.86 147.73 415.24 148.04Q415.61 148.36 416.42 148.55L417.83 148.88Q419.09 149.18 419.69 149.80Q420.30 150.43 420.30 151.39Q420.30 152.20 419.84 152.83Q419.38 153.47 418.55 153.83Q417.73 154.20 416.64 154.20ZM426.57 154.20Q425.31 154.20 424.36 153.60Q423.41 153.00 422.88 151.92Q422.35 150.85 422.35 149.42Q422.35 147.97 422.88 146.88Q423.41 145.80 424.36 145.20Q425.31 144.60 426.57 144.60Q427.84 144.60 428.80 145.20Q429.75 145.80 430.28 146.88Q430.82 147.97 430.82 149.42Q430.82 150.85 430.28 151.92Q429.75 153.00 428.80 153.60Q427.84 154.20 426.57 154.20ZM426.57 152.86Q427.51 152.86 428.12 152.38Q428.72 151.90 429.01 151.12Q429.31 150.33 429.31 149.42Q429.31 148.50 429.01 147.70Q428.72 146.91 428.12 146.43Q427.51 145.94 426.57 145.94Q425.64 145.94 425.05 146.43Q424.45 146.91 424.16 147.70Q423.87 148.49 423.87 149.42Q423.87 150.33 424.16 151.12Q424.45 151.90 425.05 152.38Q425.64 152.86 426.57 152.86ZM433.33 154.00V144.72H434.78V146.15H434.87Q435.13 145.44 435.79 145.01Q436.45 144.59 437.28 144.59Q437.45 144.59 437.68 144.60Q437.90 144.60 438.04 144.61V146.11Q437.97 146.10 437.71 146.06Q437.44 146.03 437.14 146.03Q436.14 146.03 435.48 146.64Q434.82 147.25 434.82 148.19V154.00Z" fill="#6f6470"/>
</svg>
