<svg xmlns="http://www.w3.org/2000/svg" width="100" height="62"><path d="M12.24 18.758h2.918V.878h-2.917V8.07H3.057V.877H.143v17.881h2.914v-7.955h9.184zm11.239-7.881h7v-2.73h-7v-4.54h7.985V.876H20.561v17.88h11.022V16.03h-8.104zm16.187-10h-2.913v17.881h11.291V16.03h-8.378zm15.514 0h-2.917v17.881h11.292V16.03h-8.376zm21.886.007L75.097.876 66.79 18.758h3.18l1.655-3.496H80.3l1.61 3.496h3.136L77.066.884zM72.883 12.53l3.187-6.842 3.014 6.842h-6.201zm15.858 2.29c.905.497 1.63.847 2.15 1.04.847.33 1.721.496 2.599.496 1.077 0 1.915-.244 2.492-.725.633-.535.926-1.146.926-1.924 0-.657-.241-1.177-.763-1.64-.15-.129-.574-.429-1.722-.995l-2.199-1.081c-1.263-.616-2.2-1.235-2.782-1.84-.72-.741-1.085-1.663-1.085-2.739 0-1.262.455-2.359 1.357-3.257 1.048-1.069 2.511-1.61 4.352-1.61 1.398 0 2.9.366 4.463 1.087l.302.14-.167 3.16-.685-.36a21.705 21.705 0 0 0-1.521-.749c-.868-.366-1.709-.544-2.57-.544-.712 0-1.316.149-1.795.441-.616.382-.902.879-.902 1.563 0 .539.258.994.81 1.429.308.252.86.569 1.637.94l2.439 1.151c1.282.604 2.226 1.312 2.806 2.103.562.77.848 1.673.848 2.684 0 1.495-.517 2.758-1.537 3.757-1.158 1.154-2.796 1.739-4.868 1.739-1.565 0-3.166-.356-4.754-1.055l-.262-.122-.41-3.55.841.461zM10.175 26.958c-1.584-.52-3.404-.784-5.41-.784H.13v17.994h4.635c2.007 0 3.828-.265 5.412-.787 1.115-.37 2.123-1.017 2.994-1.922 1.57-1.616 2.365-3.73 2.365-6.29 0-2.547-.796-4.664-2.365-6.289-.867-.894-1.874-1.541-2.996-1.922m-.308 13.523c-1.132.624-2.792.941-4.935.941H3.06V28.917h1.872c1.375 0 2.653.159 3.796.47a5.457 5.457 0 0 1 2.598 1.63c.906 1.011 1.365 2.409 1.365 4.153 0 2.502-.95 4.29-2.824 5.311m11.419 3.686h2.93V26.174h-2.93zm18.674-7.541c.99-.394 1.78-.97 2.346-1.712.692-.914 1.044-1.987 1.044-3.19 0-1.43-.483-2.658-1.435-3.651-.847-.879-1.957-1.448-3.297-1.692-.766-.137-1.927-.207-3.45-.207h-4.146v17.994h2.93v-6.955h2.78l5.278 6.955h3.655l-5.944-7.447.24-.095zm-.865-2.579c-.581.278-1.737.425-3.344.425h-1.8v-5.555h1.8c.959 0 1.699.038 2.199.112.835.121 1.463.398 1.863.826.466.487.693 1.09.693 1.843 0 .567-.137 1.055-.42 1.494a2.383 2.383 0 0 1-.99.855zm13.719 2.191h7.045v-2.742h-7.045v-4.579h8.044v-2.743H49.886v17.994h11.09v-2.746h-8.162zm18.044 4.041c-1.472-1.261-2.218-2.958-2.218-5.048 0-2.127.754-3.857 2.244-5.143 1.142-.99 2.493-1.49 4.014-1.49.996 0 1.973.222 2.904.662.472.231 1.016.602 1.616 1.102l.674.56.49-3.206-.27-.178c-.693-.442-1.208-.73-1.618-.903a9.005 9.005 0 0 0-3.712-.777 9.242 9.242 0 0 0-4.152.966 8.868 8.868 0 0 0-3.597 3.3c-.953 1.53-1.436 3.247-1.436 5.107 0 1.24.226 2.44.67 3.561a8.893 8.893 0 0 0 2.228 3.268c1.727 1.611 3.818 2.428 6.215 2.428a9.41 9.41 0 0 0 3.53-.684c.555-.22 1.202-.574 1.924-1.055l.202-.134.284-3.957-.918.835c-.688.628-1.222 1.054-1.631 1.299a6.638 6.638 0 0 1-3.427.952c-1.515 0-2.867-.492-4.016-1.465m19.698 3.889h2.931v-15.25h6.275v-2.744H84.266v2.743h6.29zM3.282 61.055L1.75 58.668h-.042v2.387H.094v-6.212h2.155c.34 0 .653.029.942.083.288.055.54.158.757.306.216.154.395.353.537.598a1.7 1.7 0 0 1 .212.864c0 .336-.06.63-.183.883a1.674 1.674 0 0 1-.82.81c-.114.05-.234.096-.361.14l1.955 2.528H3.282zm-.37-4.572a.644.644 0 0 0-.221-.244.802.802 0 0 0-.346-.128 3.363 3.363 0 0 0-.378-.02h-.259v1.536h.267c.156 0 .292-.011.408-.032a.892.892 0 0 0 .35-.158c.177-.12.266-.32.266-.595a.747.747 0 0 0-.087-.36zm3.567 4.572v-6.212h3.388v1.355H8.093v.975h1.723v1.354H8.093v1.174h1.774v1.354zm7.317-4.857v4.857H12.18v-4.857h-1.349v-1.355h4.312v1.355zm6.26 4.857v-2.577H17.89v2.577h-1.615v-6.212h1.615v2.338h2.165v-2.338h1.614v6.212zm3.338 0h1.615v-6.212h-1.615zm7.783 0l-2.814-3.75h-.008v3.75H26.74v-6.212h1.673l2.814 3.742h.016v-3.742h1.615v6.212zm7.101 0l-2.131-2.734-.009.008v2.726h-1.615v-6.212h1.615v2.603l2.006-2.603h1.999l-2.498 2.94 2.722 3.272zm6.385 0h1.615v-6.212h-1.615zm7.783 0l-2.813-3.75h-.008v3.75h-1.616v-6.212h1.674l2.814 3.742h.016v-3.742h1.615v6.212zm7.725-1.053c-.133.262-.31.48-.532.656a2.49 2.49 0 0 1-.841.43c-.305.087-.65.133-1.033.133a3.54 3.54 0 0 1-.808-.088 2.946 2.946 0 0 1-.674-.24c-.2-.102-.373-.22-.52-.359a2.132 2.132 0 0 1-.363-.437l1.183-.958c.1.166.252.309.453.43.203.12.432.181.688.181.116 0 .231-.01.345-.029.114-.019.215-.052.303-.098a.671.671 0 0 0 .217-.178.408.408 0 0 0 .084-.256.409.409 0 0 0-.104-.28.908.908 0 0 0-.263-.2 2.243 2.243 0 0 0-.341-.144l-.35-.12-.465-.174a2.473 2.473 0 0 1-.487-.251 1.802 1.802 0 0 1-.401-.365 1.586 1.586 0 0 1-.266-.487 1.91 1.91 0 0 1-.095-.623c0-.254.052-.492.158-.718a1.81 1.81 0 0 1 .445-.595 2.1 2.1 0 0 1 .703-.405c.278-.1.586-.149.925-.149.449 0 .83.083 1.145.248.312.164.559.378.736.636l-.916.834a.798.798 0 0 0-.34-.292 1.148 1.148 0 0 0-.467-.087c-.09 0-.177.01-.262.028a.774.774 0 0 0-.234.091.523.523 0 0 0-.167.153.373.373 0 0 0-.061.215c0 .093.023.173.07.24a.72.72 0 0 0 .179.173c.072.049.153.092.242.127.088.037.174.069.258.095l.466.157c.233.077.447.17.641.278.194.106.362.233.503.38.141.146.252.316.33.512.078.195.115.417.115.665 0 .318-.065.61-.199.87m6.752-.561c-.084.372-.256.7-.516.988a2.14 2.14 0 0 1-.912.61 3.61 3.61 0 0 1-1.177.182 3.46 3.46 0 0 1-1.179-.174 2.233 2.233 0 0 1-.92-.602 2.235 2.235 0 0 1-.508-1.004 5.896 5.896 0 0 1-.125-1.26v-3.337h1.616v3.404c0 .264.014.487.045.669.031.181.105.352.22.512.178.259.462.388.85.388.184 0 .35-.031.499-.095a.8.8 0 0 0 .359-.285c.11-.16.181-.332.212-.516.03-.185.046-.41.046-.673v-3.404h1.614v3.338c0 .467-.041.887-.124 1.26m4.919 1.614l-1.531-2.387h-.043v2.387h-1.614v-6.212h2.155c.34 0 .653.029.942.083.288.055.541.158.757.306.216.154.395.353.537.598a1.7 1.7 0 0 1 .212.864c0 .336-.06.63-.182.883-.123.254-.29.46-.5.62-.1.077-.206.14-.32.19a5.06 5.06 0 0 1-.362.14l1.955 2.528h-2.006zm-.37-4.572a.637.637 0 0 0-.221-.244.802.802 0 0 0-.345-.128 3.355 3.355 0 0 0-.38-.02h-.258v1.536h.267c.156 0 .292-.011.409-.032a.888.888 0 0 0 .349-.158c.177-.12.266-.32.266-.595a.74.74 0 0 0-.087-.36zm7.778 4.572l-.407-1.082h-2.256l-.441 1.082H74.44l2.405-6.212h1.766l2.363 6.212H79.25zm-1.522-4.312h-.009l-.69 2.007h1.38l-.681-2.007zm8.749 4.312l-2.814-3.75h-.008v3.75h-1.616v-6.212h1.674l2.814 3.742h.016v-3.742h1.615v6.212zm7.205.099a3.71 3.71 0 0 1-.754.075c-.482 0-.935-.082-1.356-.244a3.364 3.364 0 0 1-1.1-.678 3.16 3.16 0 0 1-.736-1.036 3.195 3.195 0 0 1-.27-1.322 3.166 3.166 0 0 1 1.008-2.358c.31-.289.676-.515 1.098-.677.42-.162.874-.244 1.356-.244.262 0 .512.026.754.078.242.053.467.134.678.244v1.867a1.765 1.765 0 0 0-1.432-.677c-.243 0-.474.046-.691.14a1.797 1.797 0 0 0-.949.942 1.68 1.68 0 0 0-.14.685c0 .243.046.47.14.686a1.804 1.804 0 0 0 .949.941c.217.094.448.141.691.141.31 0 .584-.06.817-.178a1.9 1.9 0 0 0 .615-.5v1.876a2.59 2.59 0 0 1-.678.24m2.21-.1v-6.212h3.388v1.355h-1.773v1.03h1.303v1.356h-1.303v1.117h1.773v1.354z" fill="#FFF" fill-rule="evenodd"/></svg>